<?xml version="1.0" encoding="utf-8"?>
<!-- Generator: Adobe Illustrator 24.1.0, SVG Export Plug-In . SVG Version: 6.00 Build 0)  -->
<svg version="1.1" id="Layer_1" xmlns="http://www.w3.org/2000/svg" xmlns:xlink="http://www.w3.org/1999/xlink" x="0px" y="0px"
	 viewBox="0 0 256 256" style="enable-background:new 0 0 256 256;" xml:space="preserve">
<style type="text/css">
	.st0{fill:#00101F;}
	.st1{fill:#FFFFFF;}
	.st2{fill:#0084BF;}
</style>
<g>
	<rect x="0.1" class="st0" width="256" height="256"/>
</g>
<g id="layer1" transform="translate(0,-288.79791)">
	<g id="g6717" transform="matrix(0.51263742,0,0,0.51263742,-0.72189445,251.96587)">
		<path id="path1330" class="st1" d="M91,453.2c-4.5,1-17.1,1.9-25.2,1.9c-19.1,0-33.9-5.2-33.9-30.4v-77.5c0-1.6,1.3-2.9,2.9-2.9
			h14.5c1.6,0,2.9,1.3,2.9,2.9v77.5c0,9.7,2.9,12.6,11.6,12.6H91c1.6,0,2.9,1.3,2.9,2.9v9.4C93.9,451.9,93.3,452.6,91,453.2"/>
		<path id="path1334" class="st1" d="M154.9,406.4c0-11.9-5.5-20-15.8-20s-15.8,7.8-15.8,20v11.9c0,11.9,5.5,20,15.8,20
			c10.3,0,15.8-7.8,15.8-20V406.4z M139.1,455.2c-23.3,0-35.2-15.5-35.2-36.8v-11.9c0-21,11.9-36.8,35.2-36.8s35.2,15.5,35.2,36.8
			v11.9C174.3,439.7,162.4,455.2,139.1,455.2"/>
		<path id="path1338" class="st1" d="M237.3,386.7c-4.2-0.6-10.7-1-14.2-1c-12.6,0-15.8,9-15.8,21V418c0,11.9,3.2,21,15.8,21
			c5.2,0,11.3-0.3,14.2-1V386.7z M252.8,451.3c-9,2.3-20.3,3.9-29.7,3.9c-23.6,0-35.2-13.9-35.2-37.1v-11.3
			c0-22.9,11.6-37.1,35.2-37.1c3.6,0,8.7,0.3,14.2,1v-26.2c0-1.6,1.3-2.9,2.9-2.9h13.6c1.6,0,2.9,1.3,2.9,2.9v102.7
			C257,449.7,256.3,450.3,252.8,451.3"/>
		<path id="path1342" class="st1" d="M322.5,387c-2.9-0.6-8.7-1.3-14.2-1.3c-12.6,0-15.8,9-15.8,21V418c0,11.9,3.2,21,15.8,21
			c3.6,0,10-0.6,14.2-1.3V387z M308.7,483.6c-12.3,0-22-1.9-27.4-3.6c-1.9-0.6-2.9-1.6-2.9-3.6v-7.8c0-1.6,1.3-2.6,2.9-2.6h0.3
			c6.8,0.6,20.7,1.6,27.4,1.6c11.9,0,13.6-2.9,13.6-13.2v-1.3c-3.2,0.6-10.7,1.6-14.2,1.6c-23.6,0-35.2-13.9-35.2-37.1v-11.3
			c0-22.9,11.6-37.1,35.2-37.1c9.4,0,20.3,1.6,29.7,3.9c3.2,1,3.9,1.6,3.9,3.9v75.9C341.9,474.5,331.3,483.6,308.7,483.6"/>
		<path id="path1346" class="st1" d="M378.4,359.9h-14.2c-1.6,0-3.2-1.3-3.2-2.9v-12.9c0-1.6,1.6-2.9,3.2-2.9h14.2
			c1.6,0,2.9,1.3,2.9,2.9V357C381.3,358.6,380,359.9,378.4,359.9"/>
		<path id="path1350" class="st1" d="M378.1,453.9h-13.6c-1.6,0-2.9-1.6-2.9-3.2v-76.9c0-1.6,1.3-2.9,2.9-2.9h13.6
			c1.6,0,2.9,1.3,2.9,2.9V451C381,452.6,379.7,453.9,378.1,453.9"/>
		<path id="path1354" class="st1" d="M468.5,453.9h-17.4c-1.6,0-2.3-0.3-3.9-2.9l-16.8-25.8L414.6,451c-1.6,2.6-2.3,2.9-3.9,2.9
			h-15.2c-1,0-1.6-0.6-1.6-1.6c0-0.3,0-1,0.3-1.3l26.5-40l-24.9-37.1c-0.3-0.3-0.3-0.6-0.3-1.3c0-1,0.6-1.6,1.9-1.6h17.4
			c1.6,0,2.3,0.6,3.9,2.9l14.9,22.9l13.9-22.9c1.6-2.6,2.3-2.9,3.9-2.9h15.5c1,0,1.6,0.6,1.6,1.3s-0.3,1-0.6,1.6l-24.2,37.1l26.8,40
			c0.3,0.3,0.3,1,0.3,1.3C470.1,453.2,469.5,453.9,468.5,453.9"/>
		<path id="path1374" class="st2" d="M191.2,257.9c0,0-4.7,26.4,23.1,23.8s84.7-71.3,104.1-153.3
			C318.3,128.4,278.5,239.2,191.2,257.9"/>
		<path id="path1378" class="st1" d="M207.2,206.1c0,0-7,18.4,13.4,20.8c20.4,2,71.6-39.8,97.7-96.7
			C318,129.8,273.5,204.7,207.2,206.1"/>
		<path id="path1382" class="st1" d="M298.3,195.4c0,1,0.3,2,0.3,3v69.3c0,12-9.7,22.1-22.1,22.1h-69.3c-12,0-22.1-9.7-22.1-22.1
			v-69c0-12,9.7-22.1,22.1-22.1h63.3c4.4-3.3,8.7-7,12.7-10.7h-0.3h-82c-14.4,0-26.1,11.7-26.1,26.1v82c0,14.4,11.7,26.1,26.1,26.1
			h82c14.4,0,26.1-11.7,26.1-26.1v-82c0-4.4-1-8.7-3-12.4C303.3,185,300.9,190.3,298.3,195.4"/>
	</g>
</g>
</svg>
