<?xml version="1.0" encoding="utf-8"?>
<!-- Generator: Adobe Illustrator 24.1.0, SVG Export Plug-In . SVG Version: 6.00 Build 0)  -->
<svg version="1.1" id="Layer_1" xmlns="http://www.w3.org/2000/svg" xmlns:xlink="http://www.w3.org/1999/xlink" x="0px" y="0px"
	 viewBox="0 0 512 512" style="enable-background:new 0 0 512 512;" xml:space="preserve">
<style type="text/css">
	.st0{fill:#939598;}
</style>
<g id="Apartment-2">
	<path class="st0" d="M496,472h-8c-4.4,0-8,3.6-8,8s3.6,8,8,8h8c4.4,0,8-3.6,8-8S500.4,472,496,472z"/>
	<path class="st0" d="M152,320c4.4,0,8-3.6,8-8v-48c0-4.4-3.6-8-8-8h-48c-4.4,0-8,3.6-8,8v48c0,4.4,3.6,8,8,8H152z M112,272h32v32
		h-32V272z"/>
	<path class="st0" d="M184,320h48c4.4,0,8-3.6,8-8v-48c0-4.4-3.6-8-8-8h-48c-4.4,0-8,3.6-8,8v48C176,316.4,179.6,320,184,320z
		 M192,272h32v32h-32V272z"/>
	<path class="st0" d="M104,240h48c4.4,0,8-3.6,8-8v-48c0-4.4-3.6-8-8-8h-48c-4.4,0-8,3.6-8,8v48C96,236.4,99.6,240,104,240z
		 M112,192h32v32h-32V192z"/>
	<path class="st0" d="M184,240h48c4.4,0,8-3.6,8-8v-48c0-4.4-3.6-8-8-8h-48c-4.4,0-8,3.6-8,8v48C176,236.4,179.6,240,184,240z
		 M192,192h32v32h-32V192z"/>
	<path class="st0" d="M104,160h48c4.4,0,8-3.6,8-8v-48c0-4.4-3.6-8-8-8h-48c-4.4,0-8,3.6-8,8v48C96,156.4,99.6,160,104,160z
		 M112,112h32v32h-32V112z"/>
	<path class="st0" d="M184,160h48c4.4,0,8-3.6,8-8v-48c0-4.4-3.6-8-8-8h-48c-4.4,0-8,3.6-8,8v48C176,156.4,179.6,160,184,160z
		 M192,112h32v32h-32V112z"/>
	<path class="st0" d="M344,376c4.4,0,8-3.6,8-8v-8c0-4.4-3.6-8-8-8s-8,3.6-8,8v8C336,372.4,339.6,376,344,376z"/>
	<path class="st0" d="M488,416c0-10.4-3.4-20.4-9.7-28.7c4-13.5,0.6-28.2-9.1-38.5c1.8-4,2.7-8.4,2.7-12.8c0-17.7-14.3-32-32-32
		s-32,14.3-32,32c0,4.4,0.9,8.8,2.7,12.8c-9.7,10.3-13.1,24.9-9.1,38.5c-15.9,21.1-11.8,51,9.3,67c6.2,4.7,13.4,7.8,21.1,9v8.7h-80
		v-40.7c26.1-4.3,43.7-28.9,39.4-55c-1.3-7.6-4.4-14.9-9-21c4-13.5,0.6-28.2-9.1-38.5c1.8-4,2.7-8.4,2.7-12.8c0-17.7-14.3-32-32-32
		s-32,14.3-32,32c0,4.4,0.9,8.8,2.7,12.8c-9.7,10.3-13.1,24.9-9.1,38.5c-15.9,21.1-11.8,51,9.3,67c6.2,4.7,13.4,7.8,21.1,9v9.8
		l-11.6-7.7c-3.7-2.5-8.6-1.5-11.1,2.2s-1.5,8.6,2.2,11.1l0,0l20.4,13.6V472h-32v-24c0-4.4-3.6-8-8-8h-24V72h24c4.4,0,8-3.6,8-8V32
		c0-4.4-3.6-8-8-8H40c-4.4,0-8,3.6-8,8v32c0,4.4,3.6,8,8,8h24v368H40c-4.4,0-8,3.6-8,8v24H16c-4.4,0-8,3.6-8,8s3.6,8,8,8h448
		c4.4,0,8-3.6,8-8s-3.6-8-8-8h-16v-8.7C471.1,459.4,488,439.4,488,416z M312,384c0-8.1,3.1-15.8,8.6-21.7c2.2-2.3,2.7-5.8,1.4-8.7
		c-4.6-10.2-1.4-22.2,7.7-28.8c3.5-2.7,4.3-7.7,1.6-11.2l0,0c-2.1-2.8-3.3-6.2-3.3-9.7c0-8.8,7.2-16,16-16s16,7.2,16,16
		c0,3.5-1.2,6.9-3.3,9.6c-2.7,3.5-1.9,8.5,1.6,11.2l0,0c9,6.6,12.2,18.6,7.6,28.8c-1.3,2.9-0.7,6.3,1.5,8.7
		c12,12.8,11.4,32.9-1.3,44.9c-4,3.7-8.8,6.4-14.1,7.7V392c0-4.4-3.6-8-8-8s-8,3.6-8,8v22.9C321.9,411.2,312.1,398.5,312,384z
		 M48,40h240v16H48V40z M80,72h176v368h-48v-88c0-4.4-3.6-8-8-8h-64c-4.4,0-8,3.6-8,8v88H80V72z M192,440h-48v-80h48V440z M48,472
		v-16h240v16H48z M408,416c0-8.1,3.1-15.8,8.6-21.7c2.2-2.3,2.7-5.8,1.4-8.7c-4.6-10.2-1.4-22.2,7.7-28.8c3.5-2.7,4.3-7.7,1.6-11.2
		l0,0c-2.1-2.8-3.3-6.2-3.3-9.7c0-8.8,7.2-16,16-16s16,7.2,16,16c0,3.5-1.2,6.9-3.3,9.6c-2.7,3.5-1.9,8.5,1.6,11.2l0,0
		c9,6.6,12.2,18.6,7.6,28.8c-1.3,2.9-0.7,6.3,1.5,8.7c12,12.8,11.4,32.9-1.3,44.9c-4,3.7-8.8,6.4-14.1,7.7V424c0-4.4-3.6-8-8-8
		s-8,3.6-8,8v22.9C417.9,443.2,408.1,430.5,408,416z"/>
	<path class="st0" d="M344,216h56c1.4,0,2.8-0.4,4-1.2c14.8-4.4,23.3-20,18.9-34.8c-3.2-10.8-12.6-18.6-23.8-19.8
		c-4.3-17.1-21.6-27.5-38.7-23.2c-8.5,2.1-15.7,7.6-20,15.3c-17.6,2-30.1,17.9-28.1,35.5C314.1,203.8,327.8,216,344,216z M343.7,168
		l1.2,0.1c3.6,0.3,6.9-1.9,8.1-5.4c2.8-8.3,11.9-12.8,20.2-9.9c6.4,2.2,10.7,8.1,10.8,14.8c0,0.2,0,0.4,0,0.5
		c-0.1,4.4,3.4,8.1,7.8,8.2c0.6,0,1.2,0,1.8-0.2c6.6-1.2,13,3.2,14.2,9.8c0.1,0.6,0.2,1.3,0.2,2c0,5.7-4,10.6-9.6,11.8
		c-0.3,0.1-0.6,0.1-0.9,0.2H344c-8.8,0.1-16.1-7-16.1-15.9C327.8,175.3,334.9,168.1,343.7,168z"/>
</g>
</svg>
