<?xml version="1.0" encoding="utf-8"?>
<!-- Generator: Adobe Illustrator 24.0.3, SVG Export Plug-In . SVG Version: 6.00 Build 0)  -->
<svg version="1.1" id="Layer_1" xmlns="http://www.w3.org/2000/svg" xmlns:xlink="http://www.w3.org/1999/xlink" x="0px" y="0px"
	 viewBox="0 0 512 512" style="enable-background:new 0 0 512 512;" xml:space="preserve">
<style type="text/css">
	.st0{fill:#939598;}
</style>
<g id="outline">
	<path class="st0" d="M256,120c-75,0-136,61-136,136s61,136,136,136s136-61,136-136S331,120,256,120z M256,376
		c-66.3,0-120-53.7-120-120s53.7-120,120-120s120,53.7,120,120C375.9,322.2,322.2,375.9,256,376z"/>
	<path class="st0" d="M48,99.6c4.4,0,8-3.6,8-8v-48c0-4.4-3.6-8-8-8s-8,3.6-8,8v48C40,96.1,43.6,99.6,48,99.6z"/>
	<path class="st0" d="M80,99.6c4.4,0,8-3.6,8-8v-48c0-4.4-3.6-8-8-8s-8,3.6-8,8v48C72,96.1,75.6,99.6,80,99.6z"/>
	<path class="st0" d="M448,32c-26.5,0-48,21.5-48,48v27.6c0,17.1,9.2,33,24,41.6V181c-28.8-64.2-93.2-109-168-109
		S116.8,116.8,88,181v-31.8c14.8-8.6,24-24.4,24-41.5v-64c0-4.4-3.6-8-8-8s-8,3.6-8,8v64c0,17.7-14.3,32-32,32s-32-14.3-32-32v-64
		c0-4.4-3.6-8-8-8s-8,3.6-8,8v64c0,17.1,9.2,33,24,41.5v246.5c0,13.3,10.7,24,24,24s24-10.7,24-24V331c28.8,64.2,93.2,109,168,109
		s139.2-44.8,168-109v64.6c0,13.3,10.7,24,24,24s24-10.7,24-24V149.2c14.8-8.6,24-24.4,24-41.6V80C496,53.5,474.5,32,448,32z
		 M72,395.6c0,4.4-3.6,8-8,8s-8-3.6-8-8V155c5.3,0.9,10.7,0.9,16,0V395.6z M256,424c-92.6,0-168-75.4-168-168S163.4,88,256,88
		s168,75.4,168,168S348.6,424,256,424z M480,107.6c0,12.7-7.5,24.2-19.2,29.3c-2.9,1.3-4.8,4.1-4.8,7.3v251.3c0,4.4-3.6,8-8,8
		s-8-3.6-8-8V144.3c0-3.2-1.9-6.1-4.8-7.3c-11.7-5.1-19.2-16.6-19.2-29.3V80c0-17.7,14.3-32,32-32s32,14.3,32,32V107.6z"/>
	<path class="st0" d="M448,59.6c-4.4,0-8,3.6-8,8c0,4.4,3.6,8,8,8c4.4,0,8,3.6,8,8v16c0,4.4-3.6,8-8,8c-4.4,0-8,3.6-8,8s3.6,8,8,8
		c13.2,0,24-10.8,24-24v-16C472,70.4,461.2,59.7,448,59.6z"/>
</g>
</svg>
