<?xml version="1.0" encoding="utf-8"?>
<!-- Generator: Adobe Illustrator 24.0.3, SVG Export Plug-In . SVG Version: 6.00 Build 0)  -->
<svg version="1.1" id="Layer_1" xmlns="http://www.w3.org/2000/svg" xmlns:xlink="http://www.w3.org/1999/xlink" x="0px" y="0px"
	 viewBox="0 0 512 512" style="enable-background:new 0 0 512 512;" xml:space="preserve">
<style type="text/css">
	.st0{fill:#939598;}
</style>
<circle class="st0" cx="314.3" cy="209.2" r="16"/>
<circle class="st0" cx="366.3" cy="202.2" r="16"/>
<circle class="st0" cx="343.9" cy="248.2" r="16"/>
<circle class="st0" cx="304.3" cy="283.4" r="16"/>
<circle class="st0" cx="275" cy="241.2" r="16"/>
<circle class="st0" cx="256" cy="302.2" r="16"/>
<path class="st0" d="M415.2,479H291.1c13.4-57.2,32.5-94.3,56.7-110.1c2-1.3,3.2-3.5,3.2-5.9v-15.6c0-3.9-3.1-7-7-7l0,0h-28.6
	c85.7-32.8,128.6-128.9,95.8-214.7S282.3-2.9,196.6,29.9S67.9,158.9,100.7,244.6c16.9,44.1,51.7,78.9,95.8,95.8H168
	c-3.9,0-7,3.1-7,7l0,0V363c0,2.4,1.2,4.6,3.2,5.9c24.3,15.8,43.3,52.9,56.7,110.1H96.8c-3.9,0-7,3.1-7,7s3.1,7,7,7h318.5
	c3.9,0,7-3.1,7-7S419.1,479,415.2,479L415.2,479z M103.8,185.2C103.8,101.2,171.9,33,256,33s152.2,68.2,152.2,152.2
	S340.1,337.5,256,337.5c0,0,0,0,0,0C172,337.4,103.9,269.3,103.8,185.2z M235.3,479c-13.7-60.3-34-100.5-60.3-119.7v-4.9h162v4.9
	c-26.3,19.2-46.6,59.4-60.3,119.7H235.3z"/>
</svg>
