<?xml version="1.0" encoding="utf-8"?>
<!-- Generator: Adobe Illustrator 24.0.3, SVG Export Plug-In . SVG Version: 6.00 Build 0)  -->
<svg version="1.1" id="Capa_1" xmlns="http://www.w3.org/2000/svg" xmlns:xlink="http://www.w3.org/1999/xlink" x="0px" y="0px"
	 viewBox="0 0 512 512" style="enable-background:new 0 0 512 512;" xml:space="preserve">
<style type="text/css">
	.st0{fill:#939598;}
</style>
<g>
	<path class="st0" d="M274.3,161c0-57.6-46.8-104.4-104.4-104.4c-57.6,0-104.4,46.8-104.4,104.4s46.8,104.4,104.4,104.4
		C227.5,265.4,274.3,218.6,274.3,161z M169.9,250.4c-3.4,0-6.7-0.2-10-0.6l98.8-98.8c0.4,3.3,0.6,6.6,0.6,10
		C259.3,210.3,219.2,250.4,169.9,250.4z M101.6,218.7c-7.4-8.8-13.2-19-16.8-30.2L197.3,75.9c11.2,3.6,21.4,9.4,30.2,16.8
		L101.6,218.7z M238.2,103.3c7.4,8.8,13.2,19,16.8,30.2L142.5,246.1c-11.2-3.6-21.4-9.4-30.2-16.8L238.2,103.3z M169.9,71.6
		c3.4,0,6.7,0.2,10,0.6L81,171c-0.4-3.3-0.6-6.6-0.6-10C80.5,111.7,120.6,71.6,169.9,71.6z"/>
	<path class="st0" d="M472.8,69.8c-10.6,0-20,5.5-25.4,13.8c-6.4-4.7-16.9-12-31.2-20.3c-3.6-2.1-8.2-0.9-10.2,2.7
		c-2.1,3.6-0.9,8.2,2.7,10.2c17.5,10.1,29,18.7,33.9,22.5v124.5c-7.5,5.9-31.2,23.3-69,40.6c-29.3,13.4-71.3,28.6-123.9,36.9
		c48.5-27.8,81.2-80,81.2-139.8c0-59.8-32.7-112-81.2-139.8c56.9,9,101.9,26.1,133,41.2c1.1,0.5,2.2,0.8,3.3,0.8
		c2.8,0,5.5-1.6,6.8-4.2c1.8-3.7,0.3-8.2-3.5-10C343.5,26.7,268.6,0.2,171,0c-0.4,0-0.7,0-1.1,0C81.1,0,8.9,72.2,8.9,161
		c0,62.4,35.6,116.6,87.6,143.3v102.4c0,4.1,3.4,7.5,7.5,7.5c4.1,0,7.5-3.4,7.5-7.5V311c18.1,7.1,37.8,11,58.4,11c0.1,0,0.1,0,0.2,0
		c16.2,0,31.8-0.8,46.7-2.1v144.3c0,18.1-14.7,32.8-32.8,32.8h-39.6c-18.1,0-32.8-14.7-32.8-32.8v-27.5c0-4.1-3.4-7.5-7.5-7.5
		c-4.1,0-7.5,3.4-7.5,7.5v27.5c0,26.4,21.5,47.8,47.8,47.8h39.6c26.4,0,47.8-21.5,47.8-47.8v-50H245c4.4,0,8.4-2,11.2-5.4
		s3.7-7.9,2.6-12.1l-11.4-46.4c-1.6-6.4-7.2-10.8-13.8-10.8h-1.9v-21.1c63.7-7.5,114.1-25.3,148.1-40.9
		c33.9-15.5,56.7-30.9,67.7-39.1c5.4,8.3,14.8,13.8,25.4,13.8c16.7,0,30.2-13.6,30.2-30.2V100C503.1,83.3,489.5,69.8,472.8,69.8z
		 M233,354.5l10.9,44.7h-12.2v-44.7L233,354.5z M23.9,161c0-80.5,65.5-146,146-146c80.5,0,146,65.5,146,146s-65.5,146-146,146
		S23.9,241.5,23.9,161L23.9,161z M488.1,222c0,8.4-6.8,15.2-15.2,15.2c-8.4,0-15.2-6.8-15.2-15.2V100c0-8.4,6.8-15.2,15.2-15.2
		c8.4,0,15.2,6.8,15.2,15.2V222z"/>
</g>
</svg>
