<?xml version="1.0" encoding="utf-8"?>
<!-- Generator: Adobe Illustrator 24.0.3, SVG Export Plug-In . SVG Version: 6.00 Build 0)  -->
<svg version="1.1" id="Layer_1_1_" xmlns="http://www.w3.org/2000/svg" xmlns:xlink="http://www.w3.org/1999/xlink" x="0px" y="0px"
	 viewBox="0 0 512 512" style="enable-background:new 0 0 512 512;" xml:space="preserve">
<style type="text/css">
	.st0{fill:#939598;}
</style>
<path class="st0" d="M192,16H64c-4.4,0-8,3.6-8,8v29.1L17.9,98.9c-2,2.4-2.4,5.7-1.1,8.5c1.3,2.8,4.1,4.6,7.2,4.6h208
	c3.1,0,5.9-1.8,7.2-4.6s0.9-6.1-1.1-8.5L200,53.1V24C200,19.6,196.4,16,192,16z M72,32h112v16H72V32z M41.1,96l26.7-32h120.5
	l26.7,32H41.1z"/>
<path class="st0" d="M488,240h-16v-88c0-4.4-3.6-8-8-8H288c-4.4,0-8,3.6-8,8v88h-56v-16h-16v16h-32v-16h-16v16h-48v-8h8
	c4.4,0,8-3.6,8-8v-40h8v-16h-16H40H24v16h8v40c0,4.4,3.6,8,8,8h8v8H24c-4.4,0-8,3.6-8,8v32v208c0,4.4,3.6,8,8,8h464c4.4,0,8-3.6,8-8
	V280v-32C496,243.6,492.4,240,488,240z M256,288h224v48H256V288z M288,256h176h16v16H256v-16H288z M456,240h-40v-80h40V240z
	 M296,160h104v80H296V160z M48,184h64v32H48V184z M64,232h32v8H64V232z M32,256h208v16H32V256z M32,288h208v192H32V288z M256,480
	V352h224v128H256z"/>
<path class="st0" d="M424,176h16v16h-16V176z"/>
<path class="st0" d="M424,208h16v16h-16V208z"/>
<path class="st0" d="M384,168h-72c-4.4,0-8,3.6-8,8v48c0,4.4,3.6,8,8,8h72c4.4,0,8-3.6,8-8v-48C392,171.6,388.4,168,384,168z
	 M376,216h-56v-32h56V216z"/>
<path class="st0" d="M272,128h208c4.4,0,8-3.6,8-8V24c0-4.4-3.6-8-8-8H272c-4.4,0-8,3.6-8,8v96C264,124.4,267.6,128,272,128z
	 M328,88v24h-16V88H328z M392,112h-16V64h16V112z M440,80c4.4,0,8,3.6,8,8v24h-16V88C432,83.6,435.6,80,440,80z M280,32h192v80h-8
	V88c0-10.4-6.7-19.2-16-22.5V56h-16v9.5c-9.3,3.3-16,12.1-16,22.5v24h-8V56c0-4.4-3.6-8-8-8h-32c-4.4,0-8,3.6-8,8v56h-16V88h8V72
	h-24V56h-16v16h-24v16h8v24h-16V32z"/>
<path class="st0" d="M72,72h16v16H72V72z"/>
<path class="st0" d="M104,72h16v16h-16V72z"/>
<path class="st0" d="M216,336H56c-4.4,0-8,3.6-8,8v112c0,4.4,3.6,8,8,8h160c4.4,0,8-3.6,8-8V344C224,339.6,220.4,336,216,336z
	 M208,448H64v-96h144V448z"/>
<path class="st0" d="M80,304h120v16H80V304z"/>
<path class="st0" d="M82.3,418.3l48-48l11.3,11.3l-48,48L82.3,418.3z"/>
<path class="st0" d="M122.3,418.3l48-48l11.3,11.3l-48,48L122.3,418.3z"/>
<path class="st0" d="M352,304h32v16h-32V304z"/>
<path class="st0" d="M352,368h32v16h-32V368z"/>
</svg>
