<?xml version="1.0" encoding="utf-8"?>
<!-- Generator: Adobe Illustrator 24.0.3, SVG Export Plug-In . SVG Version: 6.00 Build 0)  -->
<svg version="1.1" id="Layer_1" xmlns="http://www.w3.org/2000/svg" xmlns:xlink="http://www.w3.org/1999/xlink" x="0px" y="0px"
	 viewBox="0 0 512 512" style="enable-background:new 0 0 512 512;" xml:space="preserve">
<style type="text/css">
	.st0{fill:#939598;}
</style>
<g>
	<g>
		<path class="st0" d="M486.9,26H348.1c-11.6,0-21.7,7.9-24.4,19.2l-47.7,196c-0.8,3.1-0.6,6.2,0.3,9.1l-19.6,19.6
			c-12.6,12.6-19.9,29.1-20.8,46.8h-3c-4.4,0-8,3.6-8,8c0,4.4,3.6,8,8,8h4c2.5,14.4,9.3,27.7,19.9,38.3l4.3,4.3
			c21.6,21.6,21.6,56.8,0,78.4c-0.5,0.5-1,1-1.6,1.5l-1.5-2.1c-2.5-3.7-7.5-4.6-11.1-2.1s-4.6,7.5-2.1,11.1l1.5,2.2
			c-20.7,10.1-46.5,6.6-63.7-10.6l-34-34c-7.2-7.2-15.3-13.1-23.8-17.7l1.6-3.2c2-3.9,0.4-8.8-3.5-10.8c-3.9-2-8.8-0.4-10.8,3.5
			l-2,4c-35.8-12.4-77.3-4.4-105.8,24.2l-1.9,1.9c-3.1,3.1-3.1,8.2,0,11.3c3.1,3.1,8.2,3.1,11.3,0l1.9-1.9
			c23.5-23.5,57.4-30.5,87.1-21l-0.5,1.1c-2,3.9-0.4,8.8,3.5,10.8c1.2,0.6,2.4,0.9,3.6,0.9c2.9,0,5.7-1.6,7.2-4.4l1-2
			c7.1,3.9,13.8,8.8,19.8,14.7l34,34c13.5,13.5,31.5,20.9,50.6,20.9c11.9,0,23.3-2.9,33.5-8.3l1.7,2.5c1.6,2.3,4.1,3.5,6.6,3.5
			c1.6,0,3.1-0.5,4.5-1.4c3.7-2.5,4.6-7.5,2.1-11.1l-1.7-2.6c1.3-1.1,2.6-2.3,3.8-3.5c13.5-13.5,20.9-31.5,20.9-50.6
			s-7.4-37.1-20.9-50.6l-4.3-4.3c-7.7-7.7-12.6-17.1-14.8-26.9h2.8c4.4,0,8-3.6,8-8s-3.6-8-8-8h-4c0.9-12.9,6.2-25.6,16.1-35.5
			l19.6-19.6c1.6,0.5,3.3,0.8,5,0.8c1.4,0,2.7-0.2,4.1-0.5l196-47.7c11.3-2.7,19.2-12.8,19.2-24.4V51.1C512,37.2,500.7,26,486.9,26z
			 M306.1,243.2L419.3,130l68.9,68.9L306.1,243.2z M496,183.9l-65.3-65.3l48.8-48.8c3.1-3.1,3.1-8.2,0-11.3c-3.1-3.1-8.2-3.1-11.3,0
			l-48.8,48.8l-12.5-12.5c-3.1-3.1-8.2-3.1-11.3,0c-3.1,3.1-3.1,8.2,0,11.3l12.5,12.5L294.8,231.8l44.3-182.1L371.3,82
			c1.6,1.6,3.6,2.3,5.7,2.3s4.1-0.8,5.7-2.3c3.1-3.1,3.1-8.2,0-11.3L354,42h132.8c5,0,9.1,4.1,9.1,9.1L496,183.9L496,183.9z"/>
	</g>
</g>
</svg>
