<?xml version="1.0" encoding="utf-8"?>
<!-- Generator: Adobe Illustrator 24.0.3, SVG Export Plug-In . SVG Version: 6.00 Build 0)  -->
<svg version="1.1" id="Capa_1" xmlns="http://www.w3.org/2000/svg" xmlns:xlink="http://www.w3.org/1999/xlink" x="0px" y="0px"
	 viewBox="0 0 512 512" style="enable-background:new 0 0 512 512;" xml:space="preserve">
<style type="text/css">
	.st0{fill:#939598;}
</style>
<g>
	<path class="st0" d="M512,214c0-19.2-7.5-50.6-18.4-76.3C483.4,113.2,466,84,442,84s-41.4,29.2-51.6,53.7
		C379.5,163.4,372,194.8,372,214c0,7,1.1,14,3.1,20.6c-18.8,3.3-33.1,19.7-33.1,39.4c0,18.6,12.8,34.3,30,38.7V372
		c-4.9,3.6-9.2,7.1-14,11.6c-6.6-1.8-13.2-3.8-19.5-5.8c-40.4-12.9-76.9-30.8-108.5-53.2v-65.3c33.9-4.9,60-34.1,60-69.3
		c0-19.2-7.5-50.6-18.4-76.3C261.4,89.2,244.1,60,220,60c-13,0-25.3,8.4-36.6,25.1c-3.9-4.6-8.5-8.8-13.5-12.3
		C170,71.9,170,71,170,70c0-38.6-31.4-70-70-70S30,31.4,30,70c0,1,0,1.9,0.1,2.8C11.4,85.8,0,107.2,0,130c0,38.6,31.4,70,70,70h20
		v85.8c-37.3,8.8-69.2,30.7-88.4,60.8c-1,1.6-1.6,3.5-1.6,5.4v150c0,5.5,4.5,10,10,10h344c5.5,0,10-4.5,10-10s-4.5-10-10-10h-84.7
		c31.6-18.6,61.3-45,88.4-78.8c8.3-10.4,18.6-20.1,29.9-27.7c0,0,0,0,0,0c28.6-19.3,67.8-29,104.4-24.8V492h-48c-5.5,0-10,4.5-10,10
		s4.5,10,10,10h58c5.5,0,10-4.5,10-10V352c0-4.9-3.5-9-8.3-9.9c-16.5-2.9-34.2-3.2-51.7-1v-57.9C485.9,278.4,512,249.2,512,214
		L512,214z M408.8,145.4c12.8-30.6,25.6-41.4,33.2-41.4s20.4,10.9,33.2,41.4c10.9,26,16.8,54.7,16.8,68.6c0,27.6-22.4,50-50,50
		c-27.7,0-50-22.4-50-50C392,200.2,397.9,171.4,408.8,145.4z M421.4,280.9c3.5,1.1,7,1.9,10.6,2.4v61.5c-14.1,3.4-27.6,8.4-40,14.8
		v-46.9C407.1,308.8,418.7,296.4,421.4,280.9z M362,274c0-11,9-20,20-20c0.9,0,1.8,0.1,2.7,0.2c4.7,6.6,10.5,12.5,17.1,17.1
		c0.1,0.9,0.2,1.8,0.2,2.7c0,11-9,20-20,20S362,285,362,274z M220,80c7.6,0,20.4,10.9,33.2,41.4c10.9,26,16.8,54.7,16.8,68.6
		c0,27.6-22.4,50-50,50s-50-22.4-50-50c0-0.8,0-1.7,0.1-2.6c18.6-13,29.9-34.5,29.9-57.4c0-8.9-1.7-17.5-4.9-25.7
		C203.7,89,212.8,80,220,80z M20,130c0-17.9,9.8-34.5,25.7-43.4C53.2,82.4,50,74.7,50,70c0-27.6,22.4-50,50-50s50,22.4,50,50
		c0,4.7-3.2,12.4,4.3,16.6c15.8,8.9,25.7,25.3,25.7,43.4c0,27.5-22.4,50-50,50H70C42.4,180,20,157.6,20,130z M130,200
		c6.9,0,13.8-1,20.3-3c3.2,32,28,57.8,59.7,62.3v50.2c-14.9-11.2-31.7-19.2-50-23.7c-15.9-4-33-5.1-50-3.4V200H130z M20,492V355
		c17.8-26.4,47.5-45.1,81.9-51.3c18-3.2,36.4-2.7,53.3,1.5c16.9,4.2,32.4,11.9,46,22.8c21.8,17.4,45.4,32.2,70.4,44.4
		c-28.2,1.6-54.3,7.9-74.9,18.2C170.4,403.7,156,422,156,442c0,17.9,11.1,35.7,30,50L20,492z M225.7,491.2
		C196.3,479.6,176,459.7,176,442c0-11.9,10.8-24.1,29.6-33.5c21.3-10.7,49.8-16.5,80.4-16.5c27.6,0,43.1,4,56.7,8
		C282.8,473.6,232.6,487.1,225.7,491.2z"/>
	<circle class="st0" cx="399" cy="502" r="10"/>
</g>
</svg>
