<?xml version="1.0" encoding="utf-8"?>
<!-- Generator: Adobe Illustrator 24.0.3, SVG Export Plug-In . SVG Version: 6.00 Build 0)  -->
<svg version="1.1" id="Capa_1" xmlns="http://www.w3.org/2000/svg" xmlns:xlink="http://www.w3.org/1999/xlink" x="0px" y="0px"
	 viewBox="0 0 512 512" style="enable-background:new 0 0 512 512;" xml:space="preserve">
<style type="text/css">
	.st0{fill:#939598;}
</style>
<path class="st0" d="M408.8,175.3v-72.7H444V0H68v102.7h35.2v72.7h29.1v235.9l-44.7,31.5V512h336.8v-69.3l-44.7-31.5V175.3H408.8z
	 M98,72.7V30h316v42.7H98z M378.8,102.7v42.7H133.2v-42.7L378.8,102.7z M394.4,482H117.6v-23.7L152,434h208l34.4,24.3L394.4,482
	L394.4,482z M349.7,404H307V202.3h-30V404h-42V202.3h-30V404h-42.7V175.3h187.5L349.7,404z"/>
</svg>
