<?xml version="1.0" encoding="utf-8"?>
<!-- Generator: Adobe Illustrator 24.0.3, SVG Export Plug-In . SVG Version: 6.00 Build 0)  -->
<svg version="1.1" id="Capa_1" xmlns="http://www.w3.org/2000/svg" xmlns:xlink="http://www.w3.org/1999/xlink" x="0px" y="0px"
	 viewBox="0 0 512 512" style="enable-background:new 0 0 512 512;" xml:space="preserve">
<style type="text/css">
	.st0{fill:#939598;}
</style>
<g>
	<g>
		<path class="st0" d="M256,0C165,0,91,74,91,165c0,117.2,88.9,264.1,153.5,341.6c6,7.2,17.1,7.2,23.1,0
			C323.4,439.5,421,289,421,165C421,74,347,0,256,0z M256,472.8C221.4,427.5,121,285.5,121,165c0-74.4,60.6-135,135-135
			s135,60.6,135,135C391,267.2,317.5,392.4,256,472.8z"/>
	</g>
</g>
<g>
	<g>
		<path class="st0" d="M256,100c-35.8,0-65,29.2-65,65s29.2,65,65,65s65-29.2,65-65S291.8,100,256,100z M256,200
			c-19.3,0-35-15.7-35-35s15.7-35,35-35s35,15.7,35,35S275.3,200,256,200z"/>
	</g>
</g>
</svg>
