<?xml version="1.0" encoding="utf-8"?>
<!-- Generator: Adobe Illustrator 24.0.3, SVG Export Plug-In . SVG Version: 6.00 Build 0)  -->
<svg version="1.1" id="Capa_1" xmlns="http://www.w3.org/2000/svg" xmlns:xlink="http://www.w3.org/1999/xlink" x="0px" y="0px"
	 viewBox="0 0 497.1 497.1" style="enable-background:new 0 0 497.1 497.1;" xml:space="preserve">
<style type="text/css">
	.st0{fill:#939598;}
</style>
<g>
	<g>
		<g>
			<path class="st0" d="M344.9,427c-4.5,0-7.5,3-7.5,7.5v29.4c0,4.5,3,7.5,7.5,7.5s7.5-3,7.5-7.5v-29.4
				C352.5,430,348.7,427,344.9,427z"/>
			<path class="st0" d="M344.9,352.5c-4.5,0-7.5,3-7.5,7.5v29.4c0,4.5,3,7.5,7.5,7.5s7.5-3,7.5-7.5V360
				C352.5,355.5,348.7,352.5,344.9,352.5z"/>
			<path class="st0" d="M250.1,0.1c-3.8,0-7.5,3-8.3,6.8l-43.7,481.9c0,3.8,3,7.5,6.8,8.3c4.5,0,7.5-3,8.3-6.8L256.9,8.4
				C257.6,3.9,254.6,0.9,250.1,0.1z"/>
			<path class="st0" d="M476,325.4c12-27.9,21.1-55,21.1-70c0-26.4-12-49.7-31.6-65.5l-18.1-183c-0.8-3.8-3.8-7.5-8.3-6.8
				c-3.8,0.8-7.5,3.8-6.8,8.3l17.3,170.9c-11.3-5.3-23.3-8.3-36.9-8.3c-46.7,0-84.3,37.6-84.3,84.3c0,43.7,74.5,176.9,77.6,182.2
				c1.5,2.3,3.8,3.8,6.8,3.8s5.3-1.5,6.8-3.8c1.5-3,23.3-42.2,43.7-84.3l13.6,137c0.8,3.8,3.8,7.5,8.3,6.8c3.8-0.8,7.5-3.8,6.8-8.3
				L476,325.4z M412.7,418c-24.1-44.4-69.3-133.3-69.3-163.4c0-38.4,30.9-69.3,69.3-69.3s69.3,30.9,69.3,69.3
				C482,284.7,436.8,374.3,412.7,418z"/>
			<path class="st0" d="M412.7,211.7c-22.6,0-41.4,18.8-41.4,41.4s18.8,41.4,41.4,41.4s41.4-18.8,41.4-41.4S435.3,211.7,412.7,211.7
				z M412.7,279.4c-14.3,0-26.4-12-26.4-26.4s12-26.4,26.4-26.4s26.4,12,26.4,26.4S427,279.4,412.7,279.4z"/>
			<path class="st0" d="M174.8,241h-44.4v-31.6h24.8c2.3,0,3.8-0.8,5.3-2.3l37.6-40.7c3-3,3-7.5,0-10.5l-37.6-40.7
				c-1.5-1.5-3.8-2.3-5.3-2.3h-24.8V95c0-4.5-3-7.5-7.5-7.5H89.7c-4.5,0-7.5,3-7.5,7.5V113H26.5c-4.5,0-7.5,3-7.5,7.5v81.3
				c0,4.5,3,7.5,7.5,7.5h56.5V241H45.3c-2.3,0-3.8,0.8-5.3,2.3L2.4,284c-3,3-3,7.5,0,10.5L40,335.2c1.5,1.5,3.8,2.3,5.3,2.3h36.9
				v152.1c0,4.5,3,7.5,7.5,7.5h33.1c4.5,0,7.5-3,7.5-7.5V337.4h44.4c4.5,0,7.5-3,7.5-7.5v-81.3C182.3,244.8,179.3,241,174.8,241z
				 M97.2,102.5h18.1V113H97.2V102.5z M34,194.4v-66.3h119l30.9,33.1l-30.9,33.1L34,194.4L34,194.4z M115.3,209.4V241H97.2v-31.6
				L115.3,209.4L115.3,209.4z M115.3,482H97.2V337.4h18.1V482z M168,322.4h-0.8H49l-30.9-33.1L49,256.1c12,0,106.2,0,119,0
				L168,322.4L168,322.4z"/>
			<path class="st0" d="M344.9,173.3c4.5,0,7.5-3,7.5-7.5v-29.4c0-4.5-3-7.5-7.5-7.5s-7.5,3-7.5,7.5v29.4
				C337.4,170.3,340.4,173.3,344.9,173.3z"/>
			<path class="st0" d="M344.9,99.5c4.5,0,7.5-3,7.5-7.5V62.6c0-4.5-3-7.5-7.5-7.5s-7.5,3-7.5,7.5V92
				C337.4,95.7,340.4,99.5,344.9,99.5z"/>
		</g>
	</g>
</g>
</svg>
