<?xml version="1.0" encoding="utf-8"?>
<!-- Generator: Adobe Illustrator 24.0.3, SVG Export Plug-In . SVG Version: 6.00 Build 0)  -->
<svg version="1.1" id="Layer_1" xmlns="http://www.w3.org/2000/svg" xmlns:xlink="http://www.w3.org/1999/xlink" x="0px" y="0px"
	 viewBox="0 0 512 512" style="enable-background:new 0 0 512 512;" xml:space="preserve">
<style type="text/css">
	.st0{fill:#939598;}
</style>
<g id="outline">
	<path class="st0" d="M488,454.1V265.9c9.9-8.8,10.7-24,1.9-33.9c-4.6-5.1-11.1-8-17.9-8h-1.4c1.5-4.4,1.8-9.1,0.7-13.6
		c5.5-4.6,8.7-11.3,8.7-18.4c0-22.1-17.9-40-40-40c-3,0-6,0.6-8.8,1.7c-1-3.6-2.8-6.9-5.3-9.7c8.8-9.9,8-25-1.8-33.9
		c-9.9-8.8-25-8-33.9,1.8c-8.2,9.1-8.2,22.9,0,32c-2.1,2.3-3.7,5-4.8,8H376c-13.2,0-24,10.8-24,24v8h-16v-8c0-13.2-10.8-24-24-24
		h-16c-3,0-6,0.6-8.8,1.7c-1-3.6-2.8-6.9-5.3-9.7c8.8-9.9,8-25-1.8-33.9c-9.9-8.8-25-8-33.9,1.8c-8.2,9.1-8.2,22.9,0,32
		c-2.1,2.3-3.7,5-4.8,8H232c-13.2,0-24,10.8-24,24v16c0,7.1,3.2,13.9,8.7,18.4c-0.4,1.8-0.7,3.7-0.7,5.6c0,1.5,0.1,3,0.4,4.5
		C152.2,206.1,104,148.6,104,80c0-35.3-28.7-64-64-64c-13.2,0-24,10.7-24,24c0,6.8,2.9,13.3,8,17.9v396.3c-9.9,8.8-10.7,24-1.9,33.9
		c4.6,5.1,11.1,8,17.9,8h432c13.2,0,24-10.7,24-24C496,465.2,493.1,458.7,488,454.1z M376,448v-12.7l48-48l48,48V448H376z
		 M118.8,221.9L88,252.7L43.3,208l36.1-36.1C89.7,190.6,103,207.5,118.8,221.9z M472,412.7L435.3,376l36.7-36.7V412.7z M424,364.7
		L379.3,320l44.7-44.7l44.7,44.7L424,364.7z M155.3,320l44.7-44.7l44.7,44.7L200,364.7L155.3,320z M188.7,376L152,412.7v-73.4
		L188.7,376z M248,339.3v73.4L211.3,376L248,339.3z M264,339.3l36.7,36.7L264,412.7V339.3z M267.3,320l44.7-44.7l44.7,44.7
		L312,364.7L267.3,320z M360,339.3v73.4L323.3,376L360,339.3z M376,339.3l36.7,36.7L376,412.7V339.3z M376,300.7V272h28.7L376,300.7
		z M360,300.7L331.3,272H360V300.7z M264,300.7V272h28.7L264,300.7z M248,300.7l-31.2-31.2c10.3,1.7,20.8,2.6,31.2,2.6V300.7z
		 M186.6,261.9l2.1,2.1L152,300.7v-54.5C163,252.6,174.6,257.9,186.6,261.9z M136,300.7L99.3,264l31.8-31.8c1.6,1.2,3.2,2.5,4.9,3.6
		V300.7z M40,227.3L76.7,264L40,300.7V227.3z M40,339.3L76.7,376L40,412.7V339.3z M43.3,320L88,275.3l44.7,44.7L88,364.7L43.3,320z
		 M136,339.3v73.4L99.3,376L136,339.3z M152,435.3l48-48l48,48V448h-96V435.3z M264,435.3l48-48l48,48V448h-96V435.3z M472,300.7
		L443.3,272H472V300.7z M448,224c-4.4,0-8-3.6-8-8h16C456,220.4,452.4,224,448,224z M296,216h16c0,4.4-3.6,8-8,8S296,220.4,296,216z
		 M281.4,224h-18.8c0.9-2.6,1.4-5.3,1.4-8h16C280,218.7,280.5,221.4,281.4,224z M327.3,210.4c3.3-2.8,5.8-6.4,7.3-10.4h18.8
		c1.4,4.1,4,7.7,7.3,10.4c-1.1,4.5-0.8,9.2,0.7,13.6h-34.8C328.2,219.6,328.4,214.9,327.3,210.4L327.3,210.4z M376,216h16
		c0,4.4-3.6,8-8,8S376,220.4,376,216z M408,216h16c0,2.7,0.5,5.4,1.4,8h-18.8C407.5,221.4,408,218.7,408,216z M400,160
		c0-4.4,3.6-8,8-8s8,3.6,8,8v8h-16V160z M408,120c4.4,0,8,3.6,8,8c0,4.4-3.6,8-8,8s-8-3.6-8-8C400,123.6,403.6,120,408,120z
		 M368,176c0-4.4,3.6-8,8-8h8v8c0,4.4,3.6,8,8,8h32c4.4,0,8-3.6,8-8c0-4.4,3.6-8,8-8c13.2,0,24,10.8,24,24c0,4.4-3.6,8-8,8h-80
		c-4.4,0-8-3.6-8-8V176z M256,160c0-4.4,3.6-8,8-8s8,3.6,8,8v8h-16V160z M264,120c4.4,0,8,3.6,8,8c0,4.4-3.6,8-8,8s-8-3.6-8-8
		C256,123.6,259.6,120,264,120z M224,176c0-4.4,3.6-8,8-8h8v8c0,4.4,3.6,8,8,8h32c4.4,0,8-3.6,8-8c0-4.4,3.6-8,8-8h16
		c4.4,0,8,3.6,8,8v16c0,4.4-3.6,8-8,8h-80c-4.4,0-8-3.6-8-8V176z M232,216h16c0,3.8-2.7,7.1-6.5,7.8c-1.3-0.1-2.7-0.1-4-0.2
		C234.2,222.6,232,219.5,232,216z M40,32c26.5,0,48,21.5,48,48c0,88.2,71.8,160,160,160h224c4.4,0,8,3.6,8,8s-3.6,8-8,8H248
		c-97,0-176-79-176-176c0-17.7-14.3-32-32-32c-4.4,0-8-3.6-8-8S35.6,32,40,32z M56,80c0,26.4,5.4,52.5,16,76.7l-32,32V64
		C48.8,64,56,71.2,56,80z M40,435.3l48-48l48,48V448H40V435.3z M472,480H40c-4.4,0-8-3.6-8-8s3.6-8,8-8h432c4.4,0,8,3.6,8,8
		S476.4,480,472,480z"/>
</g>
</svg>
