<?xml version="1.0" encoding="utf-8"?>
<!-- Generator: Adobe Illustrator 24.0.3, SVG Export Plug-In . SVG Version: 6.00 Build 0)  -->
<svg version="1.1" id="Layer_1" xmlns="http://www.w3.org/2000/svg" xmlns:xlink="http://www.w3.org/1999/xlink" x="0px" y="0px"
	 viewBox="0 0 512 512" style="enable-background:new 0 0 512 512;" xml:space="preserve">
<style type="text/css">
	.st0{fill:#939598;}
</style>
<g>
	<g>
		<g>
			<path class="st0" d="M440.9,64.6l-181.3-64c-2.3-0.8-4.8-0.8-7.1,0l-181.3,64c-4.3,1.5-7.1,5.5-7.1,10.1v128
				c0,165.6,24.6,226.2,187.2,308.2c1.5,0.8,3.2,1.1,4.8,1.1s3.3-0.4,4.8-1.1C423.4,428.9,448,368.3,448,202.7v-128
				C448,70.2,445.1,66.1,440.9,64.6z M426.7,202.7c0,158.7-20.2,210-170.7,286.7C105.6,412.7,85.3,361.3,85.3,202.7V82.2L256,22
				l170.7,60.2L426.7,202.7L426.7,202.7z"/>
			<path class="st0" d="M181.3,181.3V192c-11.8,0-21.3,9.6-21.3,21.3V320c0,11.8,9.6,21.3,21.3,21.3h149.3
				c11.8,0,21.3-9.6,21.3-21.3V213.3c0-11.8-9.6-21.3-21.3-21.3v-10.7c0-41.2-33.5-74.7-74.7-74.7S181.3,140.2,181.3,181.3z
				 M330.7,320H181.3V213.3c0,0,0,0,0,0l0-10.7v10.7h149.3V320z M309.3,181.3V192H202.7v-10.7c0-29.4,23.9-53.3,53.3-53.3
				S309.3,151.9,309.3,181.3z"/>
			<path class="st0" d="M245.3,274.1V288c0,5.9,4.8,10.7,10.7,10.7s10.7-4.8,10.7-10.7v-13.9c6.3-3.7,10.7-10.3,10.7-18.1
				c0-11.8-9.6-21.3-21.3-21.3c-11.8,0-21.3,9.6-21.3,21.3C234.7,263.8,239.1,270.3,245.3,274.1z"/>
		</g>
	</g>
</g>
</svg>
