<?xml version="1.0" encoding="utf-8"?>
<!-- Generator: Adobe Illustrator 24.0.3, SVG Export Plug-In . SVG Version: 6.00 Build 0)  -->
<svg version="1.1" id="Capa_1" xmlns="http://www.w3.org/2000/svg" xmlns:xlink="http://www.w3.org/1999/xlink" x="0px" y="0px"
	 viewBox="0 0 512 512" style="enable-background:new 0 0 512 512;" xml:space="preserve">
<style type="text/css">
	.st0{fill:#939598;}
</style>
<g>
	<g>
		<g>
			<path class="st0" d="M336.2,327.1c-5.6,0.6-9.7,5.7-9.1,11.3c0.4,3.3,0.6,6.5,0.6,9.7c0,9.3-0.9,18.7-2.7,27.9
				c-13.2,66.9-72.4,115.4-140.7,115.4C105.3,491.5,41,427.2,41,348.2c0-58.8,35.2-110.8,89.6-132.6c5.3-2.1,7.8-8,5.7-13.3
				c-2.1-5.3-8.1-7.8-13.3-5.7C60.7,221.4,20.5,281,20.5,348.2C20.5,438.5,94,512,184.3,512c78,0,145.7-55.5,160.8-132
				c2-10.5,3.1-21.3,3.1-31.8c0-4.1-0.2-7.9-0.7-12C346.9,330.6,342,326.5,336.2,327.1z"/>
			<path class="st0" d="M491,416.6c-1.8-5.3-7.5-8.3-12.9-6.5L426,427.5l-58-154.6c-1.5-4-5.3-6.6-9.6-6.6H203.9l-5.6-61.4H297
				c5.7,0,10.2-4.6,10.2-10.2s-4.6-10.2-10.2-10.2H196.5l-7.7-84.3c21-6.4,36.5-25.7,36.5-48.8c0-28.2-23-51.2-51.2-51.2
				s-51.2,23-51.2,51.2c0,26.3,20,47.8,45.5,50.6l16,175.6c0.5,5.3,4.9,9.3,10.2,9.3h156.7l59,157.2c1.5,4.1,5.4,6.6,9.6,6.6
				c1.1,0,2.2-0.2,3.2-0.5l61.4-20.5C489.9,427.8,492.8,422,491,416.6z M174.1,81.9c-16.9,0-30.7-13.8-30.7-30.7
				s13.8-30.7,30.7-30.7s30.7,13.8,30.7,30.7S191,81.9,174.1,81.9z"/>
		</g>
	</g>
</g>
</svg>
