<?xml version="1.0" encoding="utf-8"?>
<!-- Generator: Adobe Illustrator 24.0.3, SVG Export Plug-In . SVG Version: 6.00 Build 0)  -->
<svg version="1.1" id="Capa_1" xmlns="http://www.w3.org/2000/svg" xmlns:xlink="http://www.w3.org/1999/xlink" x="0px" y="0px"
	 viewBox="0 0 512 481" style="enable-background:new 0 0 512 481;" xml:space="preserve">
<style type="text/css">
	.st0{fill:#939598;}
</style>
<g>
	<g>
		<path class="st0" d="M503.6,325.3c-4-2-7.9-4.4-11.5-7.3c-26.9-21.5-61.4-25.4-91.1-11.6l-66.5-66.5C366,238,391,211.9,391,180
			c0-33.1-26.9-60-60-60c-31.9,0-58.1,25-59.9,56.5L229.6,135l58.2-58.2c17.6-17.6,17.6-46,0-63.6c-17.5-17.5-46.1-17.5-63.6,0
			l-90,90c-17.6,17.6-17.6,46,0,63.6l49.4,49.4l-85.1,85.1c-26.1-7.1-54.3-1.5-77.1,16.7c-4,3.2-8.3,5.9-12.7,7.9
			c-7.5,3.5-10.8,12.4-7.3,19.9c3.5,7.5,12.4,10.8,19.9,7.3c6.6-3.1,12.9-7,18.8-11.7c21.6-17.3,50.6-17.3,72.3,0
			c32.7,26.1,75.9,26.2,108.7,0c21.6-17.3,49.6-17.3,71.3,0c32.7,26.1,75.9,26.2,108.7,0c21.6-17.3,50.6-17.3,72.3,0
			c5.3,4.3,11.1,7.9,17,10.8c7.4,3.7,16.4,0.6,20.1-6.8C514.1,338,511.1,329,503.6,325.3z M331,150c16.5,0,30,13.5,30,30
			s-13.5,30-30,30s-30-13.5-30-30S314.5,150,331,150z M311.1,318c-16.1-12.8-34.9-19.6-54.4-19.6s-38.3,6.8-54.4,19.6
			c-21.6,17.3-49.6,17.3-71.3,0c-1.3-1-2.6-2-3.9-3l88.2-88.2c5.9-5.9,5.9-15.4,0-21.2l-60-60c-5.9-5.9-5.9-15.3,0-21.2l90-90
			c5.9-5.9,15.3-5.9,21.2,0c5.9,5.9,5.9,15.3,0,21.2l-68.8,68.8c-5.9,5.9-5.9,15.4,0,21.2l177.4,177.4
			C354.8,335.1,330.4,333.4,311.1,318z"/>
	</g>
</g>
<g>
	<g>
		<path class="st0" d="M503.6,385.3c-4-2-7.9-4.4-11.5-7.3c-32.8-26.3-76.9-26.3-109.7,0c-21.6,17.3-49.6,17.3-71.3,0
			c-16.1-12.8-34.9-19.6-54.4-19.6s-38.3,6.8-54.4,19.6c-21.6,17.3-49.6,17.3-71.3,0c-32.8-26.3-76.9-26.3-109.7,0
			c-4,3.2-8.3,5.9-12.7,7.9c-7.5,3.5-10.8,12.4-7.3,19.9c3.5,7.5,12.4,10.8,19.9,7.3c6.6-3.1,12.9-7,18.8-11.7
			c21.6-17.3,50.6-17.3,72.3,0c32.7,26.1,75.9,26.2,108.7,0c21.6-17.3,49.6-17.3,71.3,0c32.7,26.1,75.9,26.2,108.7,0
			c21.6-17.3,50.6-17.3,72.3,0c5.3,4.3,11.1,7.9,17,10.8c7.4,3.7,16.4,0.6,20.1-6.8C514.1,398,511.1,389,503.6,385.3z"/>
	</g>
</g>
<g>
	<g>
		<path class="st0" d="M503.6,445.3c-4-2-7.9-4.4-11.5-7.3c-32.8-26.3-76.9-26.3-109.7,0c-21.6,17.3-49.6,17.3-71.3,0
			c-16.1-12.8-34.9-19.6-54.4-19.6s-38.3,6.8-54.4,19.6c-21.6,17.3-49.6,17.3-71.3,0c-32.8-26.3-76.9-26.3-109.7,0
			c-4,3.2-8.3,5.9-12.7,7.9c-7.5,3.5-10.8,12.4-7.3,19.9c3.5,7.5,12.4,10.8,19.9,7.3c6.6-3.1,12.9-7,18.8-11.7
			c21.6-17.3,50.6-17.3,72.3,0c32.7,26.1,75.9,26.2,108.7,0c21.6-17.3,49.6-17.3,71.3,0c32.7,26.1,75.9,26.2,108.7,0
			c21.6-17.3,50.6-17.3,72.3,0c5.3,4.3,11.1,7.9,17,10.8c7.4,3.7,16.4,0.6,20.1-6.8C514.1,457.9,511.1,449,503.6,445.3z"/>
	</g>
</g>
</svg>
